<?xml version="1.0" encoding="UTF-8" standalone="no"?>
<svg
   viewBox="0 0 400 400"
   version="1.1"
   id="svg4"
   sodipodi:docname="alice.svg"
   inkscape:version="1.1.2 (0a00cf5339, 2022-02-04)"
   xmlns:inkscape="http://www.inkscape.org/namespaces/inkscape"
   xmlns:sodipodi="http://sodipodi.sourceforge.net/DTD/sodipodi-0.dtd"
   xmlns="http://www.w3.org/2000/svg"
   xmlns:svg="http://www.w3.org/2000/svg">
  <defs
     id="defs8" />
  <sodipodi:namedview
     id="namedview6"
     pagecolor="#ffffff"
     bordercolor="#999999"
     borderopacity="1"
     inkscape:pageshadow="0"
     inkscape:pageopacity="0"
     inkscape:pagecheckerboard="0"
     showgrid="false"
     inkscape:zoom="2.08"
     inkscape:cx="199.75962"
     inkscape:cy="200"
     inkscape:window-width="1920"
     inkscape:window-height="1052"
     inkscape:window-x="0"
     inkscape:window-y="0"
     inkscape:window-maximized="1"
     inkscape:current-layer="svg4" />
  <path
     sodipodi:type="spiral"
     style="fill:none;fill-rule:evenodd;stroke:#a6ec5c;stroke-width:12.2;stroke-miterlimit:4;stroke-dasharray:none;stroke-linecap:round;stroke-opacity:1"
     id="path113"
     sodipodi:cx="183.28758"
     sodipodi:cy="185.95"
     sodipodi:expansion="1"
     sodipodi:revolution="3"
     sodipodi:radius="186.71957"
     sodipodi:argument="-18.007093"
     sodipodi:t0="0"
     d="m 183.28758,185.95 c 6.23149,6.98658 -6.34338,11.84684 -11.61216,10.35713 -14.27807,-4.03703 -15.54467,-22.69321 -9.10211,-33.58145 11.52424,-19.47652 38.60731,-20.28816 55.55075,-7.84709 24.86519,18.25777 25.18655,54.74246 6.59206,77.52005 -24.78352,30.35894 -70.95676,30.15179 -99.48934,5.33703 -35.905333,-31.22685 -35.151806,-87.20896 -4.082,-121.45863 37.62969,-41.48095 103.48252,-40.171985 143.42792,-2.82698 47.07428,44.00979 45.20482,119.76942 1.57196,165.39722 -50.37587,52.67909 -136.06523,50.2461 -187.366518,0.31693 C 20.486353,222.43151 23.484848,126.79694 79.716238,69.828396 142.79936,5.9183026 248.39011,9.4836245 311.02134,72.021518 380.55388,141.45043 376.4208,257.00542 307.5732,325.29592" />
</svg>
